<?xml version="1.0" encoding="UTF-8" standalone="no"?>
<!DOCTYPE svg PUBLIC "-//W3C//DTD SVG 1.1//EN" "http://www.w3.org/Graphics/SVG/1.1/DTD/svg11.dtd">
<svg width="100%" height="100%" viewBox="0 0 753 371" version="1.1" xmlns="http://www.w3.org/2000/svg" xmlns:xlink="http://www.w3.org/1999/xlink" xml:space="preserve" xmlns:serif="http://www.serif.com/" style="fill-rule:evenodd;clip-rule:evenodd;stroke-linejoin:round;stroke-miterlimit:2;">
    <g id="Artboard1" transform="matrix(1,0,0,1,-45.642,-112.774)">
        <rect x="45.642" y="112.774" width="752.885" height="370.46" style="fill:none;"/>
        <g transform="matrix(1.17788,0,0,1.17788,-4.80735,59.3016)">
            <clipPath id="_clip1">
                <rect x="51" y="55" width="623" height="297" clip-rule="nonzero"/>
            </clipPath>
            <g clip-path="url(#_clip1)">
                <g transform="matrix(1,0,0,1,0,-414.276)">
                    <rect x="50" y="497.276" width="624" height="15" style="fill:rgb(221,235,247);"/>
                </g>
                <g transform="matrix(1,0,0,1,0,-358.276)">
                    <clipPath id="_clip2">
                        <rect x="51" y="413.276" width="623" height="297" clip-rule="nonzero"/>
                    </clipPath>
                    <g clip-path="url(#_clip2)">
                        <rect x="50" y="469.276" width="624" height="15" style="fill:rgb(221,235,247);"/>
                    </g>
                </g>
                <g transform="matrix(1,0,0,1,0,-302.276)">
                    <clipPath id="_clip3">
                        <rect x="51" y="357.276" width="623" height="297" clip-rule="nonzero"/>
                    </clipPath>
                    <g clip-path="url(#_clip3)">
                        <rect x="50" y="441.276" width="624" height="15" style="fill:rgb(221,235,247);"/>
                    </g>
                </g>
                <g transform="matrix(1,0,0,1,0,-246.276)">
                    <clipPath id="_clip4">
                        <rect x="51" y="301.276" width="623" height="297" clip-rule="nonzero"/>
                    </clipPath>
                    <g clip-path="url(#_clip4)">
                        <rect x="50" y="413.276" width="624" height="15" style="fill:rgb(221,235,247);"/>
                    </g>
                </g>
                <g transform="matrix(1,0,0,1,0,-175.276)">
                    <clipPath id="_clip5">
                        <rect x="51" y="230.276" width="623" height="297" clip-rule="nonzero"/>
                    </clipPath>
                    <g clip-path="url(#_clip5)">
                        <rect x="50" y="370.276" width="624" height="30" style="fill:rgb(221,235,247);"/>
                    </g>
                </g>
                <g transform="matrix(1,0,0,1,0,-74.2756)">
                    <clipPath id="_clip6">
                        <rect x="51" y="129.276" width="623" height="297" clip-rule="nonzero"/>
                    </clipPath>
                    <g clip-path="url(#_clip6)">
                        <rect x="50" y="327.276" width="624" height="15" style="fill:rgb(221,235,247);"/>
                    </g>
                </g>
                <g transform="matrix(1,0,0,1,0,-18.2756)">
                    <clipPath id="_clip7">
                        <rect x="51" y="73.276" width="623" height="297" clip-rule="nonzero"/>
                    </clipPath>
                    <g clip-path="url(#_clip7)">
                        <rect x="50" y="299.276" width="624" height="15" style="fill:rgb(221,235,247);"/>
                    </g>
                </g>
                <g transform="matrix(1,0,0,1,0,37.7244)">
                    <clipPath id="_clip8">
                        <rect x="51" y="17.276" width="623" height="297" clip-rule="nonzero"/>
                    </clipPath>
                    <g clip-path="url(#_clip8)">
                        <rect x="50" y="271.276" width="624" height="15" style="fill:rgb(221,235,247);"/>
                    </g>
                </g>
                <g transform="matrix(1,0,0,1,0,93.7244)">
                    <clipPath id="_clip9">
                        <rect x="51" y="-38.724" width="623" height="297" clip-rule="nonzero"/>
                    </clipPath>
                    <g clip-path="url(#_clip9)">
                        <rect x="50" y="243.276" width="624" height="15" style="fill:rgb(221,235,247);"/>
                    </g>
                </g>
                <text x="53px" y="80px" style="font-family:'LucidaGrande-Bold', 'Lucida Grande', sans-serif;font-weight:600;font-size:11px;">A<tspan x="59.81px 64.739px 69.669px 74.824px 77.992px " y="80px 80px 80px 80px 80px ">ssets</tspan></text>
                <text x="170px" y="80px" style="font-family:'LucidaGrande-Bold', 'Lucida Grande', sans-serif;font-weight:600;font-size:11px;">T<tspan x="175.826px 180.475px 185.999px " y="80px 80px 80px ">ype</tspan></text>
                <text x="250px" y="80px" style="font-family:'LucidaGrande-Bold', 'Lucida Grande', sans-serif;font-weight:600;font-size:11px;">A<tspan x="257.123px 266.814px 272.863px 279.111px 285.358px 288.84px 303px 310.746px 316.215px 322.463px 328.512px 338.203px 340.803px 347.051px 352.542px 356.023px 358.624px 364.673px 370.921px 378px 387.009px 392.499px 395.981px 402.228px 406.252px 408.853px 412.335px " y="80px 80px 80px 80px 80px 80px 80px 80px 80px 80px 80px 80px 80px 80px 80px 80px 80px 80px 80px 80px 80px 80px 80px 80px 80px 80px 80px ">mount Denomination Maturity</tspan></text>
                <g>
                    <text x="443px" y="66px" style="font-family:'LucidaGrande-Bold', 'Lucida Grande', sans-serif;font-weight:600;font-size:11px;">C<tspan x="449.797px 455.783px 461.968px 468.153px 471.572px 476.978px 480.939px 487.189px 492.616px 496.578px 499.997px " y="66px 66px 66px 66px 66px 66px 66px 66px 66px 66px 66px ">ounterparty</tspan></text>
                    <text x="443px" y="80px" style="font-family:'LucidaGrande-Bold', 'Lucida Grande', sans-serif;font-weight:600;font-size:11px;">o<tspan x="448.77px 452.515px 454.885px 457.277px 462.241px 467.206px 473.175px 478.365px " y="80px 80px 80px 80px 80px 80px 80px 80px ">r Issuer</tspan></text>
                </g>
                <text x="517px" y="80px" style="font-family:'LucidaGrande-Bold', 'Lucida Grande', sans-serif;font-weight:600;font-size:11px;">G<tspan x="524.067px 530.156px 535.489px 539.354px 544.687px 550.776px 554.099px 559.99px " y="80px 80px 80px 80px 80px 80px 80px 80px ">uarantor</tspan></text>
                <text x="585px" y="80px" style="font-family:'LucidaGrande-Bold', 'Lucida Grande', sans-serif;font-weight:600;font-size:11px;">C<tspan x="591.527px 597.243px 606.601px 615.958px 621.094px 627.009px " y="80px 80px 80px 80px 80px 80px ">omment</tspan></text>
                <g>
                    <text x="53px" y="108px" style="font-family:'LucidaGrande-Bold', 'Lucida Grande', sans-serif;font-weight:600;font-size:11px;">1<tspan x="58.956px " y="108px ">.</tspan></text>
                    <text x="63.995px" y="108px" style="font-family:'LucidaGrande-Bold', 'Lucida Grande', sans-serif;font-weight:600;font-size:11px;">C<tspan x="70.531px 75.697px 80.617px " y="108px 108px 108px ">ash</tspan></text>
                </g>
                <text x="170px" y="108px" style="font-family:'LucidaGrande', 'Lucida Grande', sans-serif;font-weight:500;font-size:11px;">C<tspan x="176.179px 180.823px 184.999px " y="108px 108px 108px ">ash</tspan></text>
                <g>
                    <text x="268px" y="108px" style="font-family:'LucidaGrande', 'Lucida Grande', sans-serif;font-weight:500;font-size:11px;">1<tspan x="274.047px 280.095px 286.142px 292.189px " y="108px 108px 108px 108px ">0000</tspan></text>
                    <text x="303px" y="108px" style="font-family:'LucidaGrande', 'Lucida Grande', sans-serif;font-weight:500;font-size:11px;">E<tspan x="308.054px 314.767px " y="108px 108px ">UR</tspan></text>
                </g>
                <g>
                    <text x="53px" y="136px" style="font-family:'LucidaGrande-Bold', 'Lucida Grande', sans-serif;font-weight:600;font-size:11px;">2<tspan x="59.315px 61.092px 63.776px 66.482px 72.765px 78.35px 83.855px 89.133px 92.65px 102.376px 107.88px 114.163px 117.68px " y="136px 136px 136px 136px 136px 136px 136px 136px 136px 136px 136px 136px 136px ">. Investments</tspan></text>
                    <text x="53px" y="164px" style="font-family:'LucidaGrande', 'Lucida Grande', sans-serif;font-weight:500;font-size:11px;">2<tspan x="59.156px 61.838px 67.994px 70.676px 73.357px 80.169px 82.549px 87.825px 90.205px 99.676px " y="164px 164px 164px 164px 164px 164px 164px 164px 164px 164px ">.1. Claims</tspan></text>
                </g>
                <text x="170px" y="178px" style="font-family:'LucidaGrande', 'Lucida Grande', sans-serif;font-weight:500;font-size:11px;">B<tspan x="175.619px 181.668px 187.787px 194.002px " y="178px 178px 178px 178px ">onds</tspan></text>
                <g>
                    <text x="268px" y="178px" style="font-family:'LucidaGrande', 'Lucida Grande', sans-serif;font-weight:500;font-size:11px;">1<tspan x="274.047px 280.095px 286.142px 292.189px " y="178px 178px 178px 178px ">0000</tspan></text>
                    <text x="303px" y="178px" style="font-family:'LucidaGrande', 'Lucida Grande', sans-serif;font-weight:500;font-size:11px;">E<tspan x="308.054px 314.767px " y="178px 178px ">UR</tspan></text>
                </g>
                <g>
                    <text x="378px" y="178px" style="font-family:'LucidaGrande', 'Lucida Grande', sans-serif;font-weight:500;font-size:11px;">2</text>
                    <text x="385.997px" y="178px" style="font-family:'LucidaGrande', 'Lucida Grande', sans-serif;font-weight:500;font-size:11px;">y<tspan x="390.862px 396.109px 401.302px 404.921px " y="178px 178px 178px 178px ">ears</tspan></text>
                </g>
                <g>
                    <text x="443px" y="178px" style="font-family:'LucidaGrande', 'Lucida Grande', sans-serif;font-weight:500;font-size:11px;">F<tspan x="448.193px 451.989px 457.412px 463.534px 468.464px " y="178px 178px 178px 178px 178px ">rench</tspan></text>
                    <text x="475.995px" y="178px" style="font-family:'LucidaGrande', 'Lucida Grande', sans-serif;font-weight:500;font-size:11px;">S<tspan x="481.214px 484.623px 489.993px 493.403px " y="178px 178px 178px 178px ">tate</tspan></text>
                </g>
                <text x="170px" y="192px" style="font-family:'LucidaGrande', 'Lucida Grande', sans-serif;font-weight:500;font-size:11px;">B<tspan x="175.619px 181.668px 187.787px 194.002px " y="192px 192px 192px 192px ">onds</tspan></text>
                <g>
                    <text x="268px" y="192px" style="font-family:'LucidaGrande', 'Lucida Grande', sans-serif;font-weight:500;font-size:11px;">1<tspan x="274.052px 280.105px 286.157px 292.209px " y="192px 192px 192px 192px ">0000</tspan></text>
                    <text x="303px" y="192px" style="font-family:'LucidaGrande', 'Lucida Grande', sans-serif;font-weight:500;font-size:11px;">U<tspan x="309.718px 314.739px " y="192px 192px ">SD</tspan></text>
                </g>
                <g>
                    <text x="378px" y="192px" style="font-family:'LucidaGrande', 'Lucida Grande', sans-serif;font-weight:500;font-size:11px;">0<tspan x="384.12px 386.765px " y="192px 192px ">.5</tspan></text>
                    <text x="394.995px" y="192px" style="font-family:'LucidaGrande', 'Lucida Grande', sans-serif;font-weight:500;font-size:11px;">y<tspan x="399.907px 405.2px 410.439px 414.105px " y="192px 192px 192px 192px ">ears</tspan></text>
                </g>
                <text x="443px" y="192px" style="font-family:'LucidaGrande', 'Lucida Grande', sans-serif;font-weight:500;font-size:11px;">P<tspan x="448.464px 452.349px 454.913px 459.99px 465.449px 468.947px 474.46px 477.324px 480.753px 483.316px 487.201px 496.855px " y="192px 192px 192px 192px 192px 192px 192px 192px 192px 192px 192px 192px ">rivate firms</tspan></text>
                <g>
                    <text x="170px" y="221px" style="font-family:'LucidaGrande', 'Lucida Grande', sans-serif;font-weight:500;font-size:11px;">M<tspan x="178.588px 184.459px 188.073px 191.301px 197.273px 202.462px 208.434px " y="221px 221px 221px 221px 221px 221px 221px ">ortgage</tspan></text>
                    <text x="214.977px" y="221px" style="font-family:'LucidaGrande', 'Lucida Grande', sans-serif;font-weight:500;font-size:11px;">l<tspan x="217.27px 223.14px 228.329px 234.269px " y="221px 221px 221px 221px ">oans</tspan></text>
                </g>
                <g>
                    <text x="268px" y="221px" style="font-family:'LucidaGrande', 'Lucida Grande', sans-serif;font-weight:500;font-size:11px;">1<tspan x="274.047px 280.095px 286.142px 292.189px " y="221px 221px 221px 221px ">0000</tspan></text>
                    <text x="303px" y="221px" style="font-family:'LucidaGrande', 'Lucida Grande', sans-serif;font-weight:500;font-size:11px;">E<tspan x="308.054px 314.767px " y="221px 221px ">UR</tspan></text>
                </g>
                <g>
                    <text x="378px" y="221px" style="font-family:'LucidaGrande', 'Lucida Grande', sans-serif;font-weight:500;font-size:11px;">1<tspan x="384.062px " y="221px ">0</tspan></text>
                    <text x="391.998px" y="221px" style="font-family:'LucidaGrande', 'Lucida Grande', sans-serif;font-weight:500;font-size:11px;">y<tspan x="396.851px 402.085px 407.266px 410.872px " y="221px 221px 221px 221px ">ears</tspan></text>
                </g>
                <text x="443px" y="221px" style="font-family:'LucidaGrande', 'Lucida Grande', sans-serif;font-weight:500;font-size:11px;">H<tspan x="450.184px 456.04px 461.967px 466.675px 471.903px 477.83px 483.687px 485.966px 491.99px " y="221px 221px 221px 221px 221px 221px 221px 221px 221px ">ouseholds</tspan></text>
                <g>
                    <text x="585px" y="207px" style="font-family:'LucidaGrande', 'Lucida Grande', sans-serif;font-weight:500;font-size:11px;">P<tspan x="590.424px 594.269px 600.37px 606.637px 612.109px 615.954px 619.412px 624.503px 627.327px 633.428px 638.406px 643.384px 649.555px 655.822px 658.346px 663.818px " y="207px 207px 207px 207px 207px 207px 207px 207px 207px 207px 207px 207px 207px 207px 207px 207px ">roperty occupied</tspan></text>
                    <text x="585px" y="221px" style="font-family:'LucidaGrande', 'Lucida Grande', sans-serif;font-weight:500;font-size:11px;">b<tspan x="591.114px " y="221px ">y</tspan></text>
                    <text x="597.997px" y="221px" style="font-family:'LucidaGrande', 'Lucida Grande', sans-serif;font-weight:500;font-size:11px;">o<tspan x="603.944px 611.611px 617.628px 622.947px " y="221px 221px 221px 221px ">wner</tspan></text>
                </g>
                <g>
                    <text x="170px" y="250px" style="font-family:'LucidaGrande', 'Lucida Grande', sans-serif;font-weight:500;font-size:11px;">C<tspan x="176.825px 182.797px 186.512px 192.65px 198.622px 202.337px 207.627px 210.955px " y="250px 250px 250px 250px 250px 250px 250px 250px ">orporate</tspan></text>
                    <text x="217.993px" y="250px" style="font-family:'LucidaGrande', 'Lucida Grande', sans-serif;font-weight:500;font-size:11px;">l<tspan x="220.387px 226.359px 231.648px 237.689px " y="250px 250px 250px 250px ">oans</tspan></text>
                </g>
                <g>
                    <text x="268px" y="250px" style="font-family:'LucidaGrande', 'Lucida Grande', sans-serif;font-weight:500;font-size:11px;">1<tspan x="274.047px 280.095px 286.142px 292.189px " y="250px 250px 250px 250px ">0000</tspan></text>
                    <text x="303px" y="250px" style="font-family:'LucidaGrande', 'Lucida Grande', sans-serif;font-weight:500;font-size:11px;">E<tspan x="308.054px 314.767px " y="250px 250px ">UR</tspan></text>
                </g>
                <g>
                    <text x="378px" y="250px" style="font-family:'LucidaGrande', 'Lucida Grande', sans-serif;font-weight:500;font-size:11px;">5</text>
                    <text x="385.997px" y="250px" style="font-family:'LucidaGrande', 'Lucida Grande', sans-serif;font-weight:500;font-size:11px;">y<tspan x="390.862px 396.109px 401.302px 404.921px " y="250px 250px 250px 250px ">ears</tspan></text>
                </g>
                <text x="443px" y="250px" style="font-family:'LucidaGrande', 'Lucida Grande', sans-serif;font-weight:500;font-size:11px;">P<tspan x="448.464px 452.349px 454.913px 459.99px 465.449px 468.947px 474.46px 477.324px 480.753px 483.316px 487.201px 496.855px " y="250px 250px 250px 250px 250px 250px 250px 250px 250px 250px 250px 250px ">rivate firms</tspan></text>
                <g>
                    <text x="517px" y="236px" style="font-family:'LucidaGrande', 'Lucida Grande', sans-serif;font-weight:500;font-size:11px;">D<tspan x="524.311px 529.511px 534.276px 539.476px 541.728px 547.556px 553.551px 562.893px 568.093px 573.991px " y="236px 236px 236px 236px 236px 236px 236px 236px 236px 236px ">evelopment</tspan></text>
                    <text x="517px" y="250px" style="font-family:'LucidaGrande', 'Lucida Grande', sans-serif;font-weight:500;font-size:11px;">B<tspan x="522.584px 527.917px 534px " y="250px 250px 250px ">ank</tspan></text>
                </g>
                <g>
                    <text x="53px" y="278px" style="font-family:'LucidaGrande', 'Lucida Grande', sans-serif;font-weight:500;font-size:11px;">2<tspan x="59.22px 61.966px 68.186px " y="278px 278px 278px ">.2.</tspan></text>
                    <text x="72.993px" y="278px" style="font-family:'LucidaGrande', 'Lucida Grande', sans-serif;font-weight:500;font-size:11px;">C<tspan x="79.868px 85.208px 91.396px 93.84px 97.22px 102.559px " y="278px 278px 278px 278px 278px 278px ">apital</tspan></text>
                    <text x="106.982px" y="278px" style="font-family:'LucidaGrande', 'Lucida Grande', sans-serif;font-weight:500;font-size:11px;">i<tspan x="109.427px 115.519px 120.391px 123.77px 127.536px 133.627px 143.162px 148.555px 154.646px 158.025px " y="278px 278px 278px 278px 278px 278px 278px 278px 278px 278px ">nstruments</tspan></text>
                    <text x="170px" y="292px" style="font-family:'LucidaGrande', 'Lucida Grande', sans-serif;font-weight:500;font-size:11px;">S<tspan x="175.033px 180.968px 186.151px 189.761px 194.997px " y="292px 292px 292px 292px 292px ">hares</tspan></text>
                </g>
                <g>
                    <text x="268px" y="292px" style="font-family:'LucidaGrande', 'Lucida Grande', sans-serif;font-weight:500;font-size:11px;">1<tspan x="274.052px 280.105px 286.157px 292.209px " y="292px 292px 292px 292px ">0000</tspan></text>
                    <text x="303px" y="292px" style="font-family:'LucidaGrande', 'Lucida Grande', sans-serif;font-weight:500;font-size:11px;">U<tspan x="309.718px 314.739px " y="292px 292px ">SD</tspan></text>
                </g>
                <text x="443px" y="292px" style="font-family:'LucidaGrande', 'Lucida Grande', sans-serif;font-weight:500;font-size:11px;">P<tspan x="448.464px 452.349px 454.913px 459.99px 465.449px 468.947px 474.46px 477.324px 480.753px 483.316px 487.201px 496.855px " y="292px 292px 292px 292px 292px 292px 292px 292px 292px 292px 292px 292px ">rivate firms</tspan></text>
                <g>
                    <text x="53px" y="320px" style="font-family:'LucidaGrande-Bold', 'Lucida Grande', sans-serif;font-weight:600;font-size:11px;">3<tspan x="59.18px " y="320px ">.</tspan></text>
                    <text x="63.995px" y="320px" style="font-family:'LucidaGrande-Bold', 'Lucida Grande', sans-serif;font-weight:600;font-size:11px;">F<tspan x="69.234px 71.735px 77.157px 82.526px 88.738px 91.287px 96.677px 101.82px 106.963px 112.332px 115.713px " y="320px 320px 320px 320px 320px 320px 320px 320px 320px 320px 320px ">ixed assets</tspan></text>
                </g>
                <g>
                    <text x="170px" y="334px" style="font-family:'LucidaGrande', 'Lucida Grande', sans-serif;font-weight:500;font-size:11px;">R<tspan x="176.153px 181.48px 186.752px " y="334px 334px 334px ">eal</tspan></text>
                    <text x="190.993px" y="334px" style="font-family:'LucidaGrande', 'Lucida Grande', sans-serif;font-weight:500;font-size:11px;">E<tspan x="196.153px 200.959px 204.271px 209.543px 212.855px " y="334px 334px 334px 334px 334px ">state</tspan></text>
                </g>
                <g>
                    <text x="268px" y="334px" style="font-family:'LucidaGrande', 'Lucida Grande', sans-serif;font-weight:500;font-size:11px;">1<tspan x="274.047px 280.095px 286.142px 292.189px " y="334px 334px 334px 334px ">0000</tspan></text>
                    <text x="303px" y="334px" style="font-family:'LucidaGrande', 'Lucida Grande', sans-serif;font-weight:500;font-size:11px;">E<tspan x="308.054px 314.767px " y="334px 334px ">UR</tspan></text>
                </g>
                <text x="170px" y="348px" style="font-family:'LucidaGrande', 'Lucida Grande', sans-serif;font-weight:500;font-size:11px;">E<tspan x="175.082px 181.126px 187.073px 189.373px 195.416px 204.806px 210.055px 216.002px " y="348px 348px 348px 348px 348px 348px 348px 348px ">quipment</tspan></text>
                <g>
                    <text x="268px" y="348px" style="font-family:'LucidaGrande', 'Lucida Grande', sans-serif;font-weight:500;font-size:11px;">1<tspan x="274.047px 280.095px 286.142px 292.189px " y="348px 348px 348px 348px ">0000</tspan></text>
                    <text x="303px" y="348px" style="font-family:'LucidaGrande', 'Lucida Grande', sans-serif;font-weight:500;font-size:11px;">E<tspan x="308.054px 314.767px " y="348px 348px ">UR</tspan></text>
                </g>
            </g>
        </g>
        <g transform="matrix(1.17788,0,0,1.17788,-4.80735,-481.672)">
            <rect x="50" y="513.276" width="1" height="28" style="fill:rgb(91,155,213);"/>
        </g>
        <g transform="matrix(1.17788,0,0,1.17788,-4.80735,-480.494)">
            <rect x="167" y="513.276" width="1" height="27" style="fill:rgb(91,155,213);"/>
        </g>
        <g transform="matrix(1.17788,0,0,1.17788,-4.80735,-480.494)">
            <rect x="247" y="513.276" width="1" height="27" style="fill:rgb(91,155,213);"/>
        </g>
        <g transform="matrix(1.17788,0,0,1.17788,-4.80735,-480.494)">
            <rect x="300" y="513.276" width="1" height="27" style="fill:rgb(91,155,213);"/>
        </g>
        <g transform="matrix(1.17788,0,0,1.17788,-4.80735,-480.494)">
            <rect x="375" y="513.276" width="1" height="27" style="fill:rgb(91,155,213);"/>
        </g>
        <g transform="matrix(1.17788,0,0,1.17788,-4.80735,-480.494)">
            <rect x="440" y="513.276" width="1" height="27" style="fill:rgb(91,155,213);"/>
        </g>
        <g transform="matrix(1.17788,0,0,1.17788,-4.80735,-480.494)">
            <rect x="514" y="513.276" width="1" height="27" style="fill:rgb(91,155,213);"/>
        </g>
        <g transform="matrix(1.17788,0,0,1.17788,-4.80735,-480.494)">
            <rect x="582" y="513.276" width="1" height="27" style="fill:rgb(91,155,213);"/>
        </g>
        <g transform="matrix(1.17788,0,0,1.17788,-4.80735,-480.494)">
            <rect x="673" y="513.276" width="1" height="27" style="fill:rgb(91,155,213);"/>
        </g>
        <g transform="matrix(1.17788,0,0,1.17788,-4.80735,-128.307)">
            <rect x="50" y="243.276" width="1" height="268" style="fill:rgb(91,155,213);"/>
        </g>
        <g transform="matrix(1.17788,0,0,1.17788,-4.80735,-128.307)">
            <rect x="167" y="243.276" width="1" height="268" style="fill:rgb(91,155,213);"/>
        </g>
        <g transform="matrix(1.17788,0,0,1.17788,-4.80735,-128.307)">
            <rect x="247" y="243.276" width="1" height="268" style="fill:rgb(91,155,213);"/>
        </g>
        <g transform="matrix(1.17788,0,0,1.17788,-4.80735,-128.307)">
            <rect x="300" y="243.276" width="1" height="268" style="fill:rgb(91,155,213);"/>
        </g>
        <g transform="matrix(1.17788,0,0,1.17788,-4.80735,-128.307)">
            <rect x="375" y="243.276" width="1" height="268" style="fill:rgb(91,155,213);"/>
        </g>
        <g transform="matrix(1.17788,0,0,1.17788,-4.80735,-128.307)">
            <rect x="440" y="243.276" width="1" height="268" style="fill:rgb(91,155,213);"/>
        </g>
        <g transform="matrix(1.17788,0,0,1.17788,-4.80735,-128.307)">
            <rect x="514" y="243.276" width="1" height="268" style="fill:rgb(91,155,213);"/>
        </g>
        <g transform="matrix(1.17788,0,0,1.17788,-4.80735,-128.307)">
            <rect x="582" y="243.276" width="1" height="268" style="fill:rgb(91,155,213);"/>
        </g>
        <g transform="matrix(1.17788,0,0,1.17788,-4.80735,-128.307)">
            <rect x="673" y="243.276" width="1" height="268" style="fill:rgb(91,155,213);"/>
        </g>
        <g transform="matrix(1.17788,0,0,1.17788,-4.80735,-513.475)">
            <rect x="51" y="540.276" width="623" height="1" style="fill:rgb(91,155,213);"/>
        </g>
        <g transform="matrix(1.17788,0,0,1.17788,-4.80735,-446.336)">
            <rect x="50" y="511.276" width="624" height="2" style="fill:rgb(91,155,213);"/>
        </g>
        <g transform="matrix(1.17788,0,0,1.17788,-4.80735,-412.177)">
            <rect x="51" y="497.276" width="623" height="1" style="fill:rgb(91,155,213);"/>
        </g>
        <g transform="matrix(1.17788,0,0,1.17788,-4.80735,-379.196)">
            <rect x="51" y="483.276" width="623" height="1" style="fill:rgb(91,155,213);"/>
        </g>
        <g transform="matrix(1.17788,0,0,1.17788,-4.80735,-346.215)">
            <rect x="51" y="469.276" width="623" height="1" style="fill:rgb(91,155,213);"/>
        </g>
        <g transform="matrix(1.17788,0,0,1.17788,-4.80735,-313.235)">
            <rect x="51" y="455.276" width="623" height="1" style="fill:rgb(91,155,213);"/>
        </g>
        <g transform="matrix(1.17788,0,0,1.17788,-4.80735,-280.254)">
            <rect x="51" y="441.276" width="623" height="1" style="fill:rgb(91,155,213);"/>
        </g>
        <g transform="matrix(1.17788,0,0,1.17788,-4.80735,-247.273)">
            <rect x="51" y="427.276" width="623" height="1" style="fill:rgb(91,155,213);"/>
        </g>
        <g transform="matrix(1.17788,0,0,1.17788,-4.80735,-214.292)">
            <rect x="51" y="413.276" width="623" height="1" style="fill:rgb(91,155,213);"/>
        </g>
        <g transform="matrix(1.17788,0,0,1.17788,-4.80735,-181.312)">
            <rect x="51" y="399.276" width="623" height="1" style="fill:rgb(91,155,213);"/>
        </g>
        <g transform="matrix(1.17788,0,0,1.17788,-4.80735,-112.994)">
            <rect x="51" y="370.276" width="623" height="1" style="fill:rgb(91,155,213);"/>
        </g>
        <g transform="matrix(1.17788,0,0,1.17788,-4.80735,-44.6769)">
            <rect x="51" y="341.276" width="623" height="1" style="fill:rgb(91,155,213);"/>
        </g>
        <g transform="matrix(1.17788,0,0,1.17788,-4.80735,-11.6961)">
            <rect x="51" y="327.276" width="623" height="1" style="fill:rgb(91,155,213);"/>
        </g>
        <g transform="matrix(1.17788,0,0,1.17788,-4.80735,21.2846)">
            <rect x="51" y="313.276" width="623" height="1" style="fill:rgb(91,155,213);"/>
        </g>
        <g transform="matrix(1.17788,0,0,1.17788,-4.80735,54.2654)">
            <rect x="51" y="299.276" width="623" height="1" style="fill:rgb(91,155,213);"/>
        </g>
        <g transform="matrix(1.17788,0,0,1.17788,-4.80735,87.2462)">
            <rect x="51" y="285.276" width="623" height="1" style="fill:rgb(91,155,213);"/>
        </g>
        <g transform="matrix(1.17788,0,0,1.17788,-4.80735,120.227)">
            <rect x="51" y="271.276" width="623" height="1" style="fill:rgb(91,155,213);"/>
        </g>
        <g transform="matrix(1.17788,0,0,1.17788,-4.80735,153.208)">
            <rect x="51" y="257.276" width="623" height="1" style="fill:rgb(91,155,213);"/>
        </g>
        <g transform="matrix(1.17788,0,0,1.17788,-4.80735,186.188)">
            <rect x="51" y="243.276" width="623" height="1" style="fill:rgb(91,155,213);"/>
        </g>
    </g>
</svg>
